# xmcd
#
# Track frame offsets:
#	150
#	3463
#	8296
#	10335
#	18794
#	21967
#	26528
#	30552
#	35052
#	39613
#	43607
#	88405
#	96155
#	103933
#	132411
#
# Disc length: 2182 seconds
#
# Revision: 0
# Processed by: cddbd v1.5.2PL0 Copyright (c) Steve Scherf et al.
# Submitted via: dBpowerAMP V4.0
#
DISCID=b308840f
DTITLE=Mjölk - Mjölk
DYEAR=2009
DGENRE=Bebob
TTITLE0=Jättehejssan
TTITLE1=Loviisa-Porvoo-Hymni
TTITLE2=Naksutellaan Sieraimia
TTITLE3=Pulkka
TTITLE4=Luulit Että Oon Hannu
TTITLE5=Sha
TTITLE6=Jatsiukko
TTITLE7=Jättiläinen Kohtaa Dag Hammarskjöldin
TTITLE8=Äiti Me Ollaan Telkkarissa
TTITLE9=Makkaraa
TTITLE10=Joulupukin Kouluvessa
TTITLE11=Untitled-
TTITLE12=Kaikille Naisia Riittää - Terastinen
TTITLE13=Elämä Kuin Torakka - Ruotomieli
TTITLE14=Jäinen Päivä (Helvetin Revisited) - Ruotomieli
EXTD=
EXTT0=
EXTT1=
EXTT2=
EXTT3=
EXTT4=
EXTT5=
EXTT6=
EXTT7=
EXTT8=
EXTT9=
EXTT10=
EXTT11=
EXTT12=
EXTT13=
EXTT14=
PLAYORDER=
